<?xml version="1.0" standalone="no"?>
<!DOCTYPE svg PUBLIC "-//W3C//DTD SVG 20010904//EN"
 "http://www.w3.org/TR/2001/REC-SVG-20010904/DTD/svg10.dtd">
<svg version="1.0" xmlns="http://www.w3.org/2000/svg"
 width="303.000000pt" height="303.000000pt" viewBox="0 0 303.000000 303.000000"
 preserveAspectRatio="xMidYMid meet">
<metadata>
Created by potrace 1.14, written by Peter Selinger 2001-2017
</metadata>
<g transform="translate(0.000000,303.000000) scale(0.100000,-0.100000)"
fill="#000000" stroke="none">
<path d="M1555 2296 c-247 -29 -460 -58 -472 -64 -21 -12 -66 -62 -60 -68 2
-2 198 19 437 46 432 49 434 49 475 31 78 -34 77 -30 139 -576 30 -269 53
-501 49 -514 -6 -24 -6 -24 53 -17 32 3 70 15 84 25 34 25 70 79 70 107 0 13
-25 239 -55 503 -37 328 -59 490 -70 511 -25 48 -70 70 -140 69 -33 -1 -262
-25 -510 -53z"/>
<path d="M1270 2129 c-234 -27 -435 -52 -448 -54 -25 -6 -100 -70 -92 -78 3
-3 200 17 439 44 l434 50 46 -23 c31 -16 51 -34 63 -58 19 -40 131 -991 121
-1030 -6 -22 -5 -23 47 -16 87 12 141 51 155 114 9 43 -102 997 -120 1033 -26
49 -69 69 -150 68 -38 -1 -261 -24 -495 -50z"/>
<path d="M1458 2013 c-15 -2 -25 -9 -22 -16 2 -7 29 -229 59 -493 40 -356 52
-490 45 -514 -11 -39 -35 -67 -72 -86 -17 -9 -206 -34 -475 -65 -246 -28 -450
-53 -452 -54 -10 -11 44 -65 80 -79 39 -16 58 -15 532 39 270 31 500 61 511
67 37 19 65 50 76 84 16 46 -93 1005 -118 1049 -29 49 -99 78 -164 68z"/>
</g>
</svg>
